<?xml version="1.0" encoding="UTF-8" standalone="no"?>
<!-- Generator: Adobe Illustrator 19.0.0, SVG Export Plug-In . SVG Version: 6.00 Build 0)  -->

<svg
   xmlns:dc="http://purl.org/dc/elements/1.1/"
   xmlns:cc="http://creativecommons.org/ns#"
   xmlns:rdf="http://www.w3.org/1999/02/22-rdf-syntax-ns#"
   xmlns:svg="http://www.w3.org/2000/svg"
   xmlns="http://www.w3.org/2000/svg"
   xmlns:sodipodi="http://sodipodi.sourceforge.net/DTD/sodipodi-0.dtd"
   xmlns:inkscape="http://www.inkscape.org/namespaces/inkscape"
   version="1.1"
   id="Capa_1"
   x="0px"
   y="0px"
   viewBox="0 0 512 512"
   style="enable-background:new 0 0 512 512;"
   xml:space="preserve"
   sodipodi:docname="clear.svg"
   inkscape:version="0.92.3 (5aff6ba, 2018-11-25)"><metadata
     id="metadata973"><rdf:RDF><cc:Work
         rdf:about=""><dc:format>image/svg+xml</dc:format><dc:type
           rdf:resource="http://purl.org/dc/dcmitype/StillImage" /><dc:title /></cc:Work></rdf:RDF></metadata><defs
     id="defs971" /><sodipodi:namedview
     pagecolor="#ffffff"
     bordercolor="#666666"
     borderopacity="1"
     objecttolerance="10"
     gridtolerance="10"
     guidetolerance="10"
     inkscape:pageopacity="0"
     inkscape:pageshadow="2"
     inkscape:window-width="1867"
     inkscape:window-height="1025"
     id="namedview969"
     showgrid="false"
     inkscape:zoom="1.7402344"
     inkscape:cx="47.982043"
     inkscape:cy="256"
     inkscape:window-x="53"
     inkscape:window-y="27"
     inkscape:window-maximized="1"
     inkscape:current-layer="Capa_1" /><g
     id="g918"
     style="fill:#000000;fill-opacity:1"><g
       id="g916"
       style="fill:#000000;fill-opacity:1"><circle
         cx="135"
         cy="377"
         r="15"
         id="circle914"
         style="fill:#000000;fill-opacity:1" /></g></g><g
     id="g924"
     style="fill:#000000;fill-opacity:1"><g
       id="g922"
       style="fill:#000000;fill-opacity:1"><path
         d="M467,272h-76V45c0-24.813-20.187-45-45-45s-45,20.187-45,45v227h-76c-24.813,0-45,20.187-45,45v30v77.574    c0,23.353-9.094,45.307-25.606,61.819c-4.29,4.29-5.573,10.742-3.252,16.347c2.322,5.605,7.791,9.26,13.858,9.26h271    c20.03,0,38.999-7.759,53.411-21.847C503.978,475.915,512,457.038,512,437v-90v-30C512,292.187,491.813,272,467,272z M331,45    c0-8.271,6.729-15,15-15s15,6.729,15,15v167h-30V45z M331,242h30v30h-30V242z M271,424.574c0,21.344-7.617,41.506-21.532,57.426    H195.06c9.753-17.342,14.94-36.986,14.94-57.426V362h61V424.574z M391,424.574c0,21.344-7.617,41.506-21.532,57.426h-83.413    C295.808,464.657,301,445.015,301,424.574V362h90V424.574z M482,437c0,24.393-21.065,45-46,45h-29.944    C415.808,464.657,421,445.015,421,424.574V362h61V437z M482,332H210v-15c0-8.271,6.729-15,15-15c76.329,0,165.997,0,242,0    c8.271,0,15,6.729,15,15V332z"
         id="path920"
         style="fill:#000000;fill-opacity:1" /></g></g><g
     id="g930"
     style="fill:#000000;fill-opacity:1"><g
       id="g928"
       style="fill:#000000;fill-opacity:1"><path
         d="M105,242c-24.813,0-45,20.187-45,45s20.187,45,45,45s45-20.187,45-45S129.813,242,105,242z M105,302    c-8.271,0-15-6.729-15-15s6.729-15,15-15s15,6.729,15,15S113.271,302,105,302z"
         id="path926"
         style="fill:#000000;fill-opacity:1" /></g></g><g
     id="g936"
     style="fill:#000000;fill-opacity:1"><g
       id="g934"
       style="fill:#000000;fill-opacity:1"><path
         d="M75,392H60v-15c0-8.284-6.716-15-15-15s-15,6.716-15,15v15H15c-8.284,0-15,6.716-15,15s6.716,15,15,15h15v15    c0,8.284,6.716,15,15,15s15-6.716,15-15v-15h15c8.284,0,15-6.716,15-15S83.284,392,75,392z"
         id="path932"
         style="fill:#000000;fill-opacity:1" /></g></g><g
     id="g938" /><g
     id="g940" /><g
     id="g942" /><g
     id="g944" /><g
     id="g946" /><g
     id="g948" /><g
     id="g950" /><g
     id="g952" /><g
     id="g954" /><g
     id="g956" /><g
     id="g958" /><g
     id="g960" /><g
     id="g962" /><g
     id="g964" /><g
     id="g966" /></svg>