<?xml version="1.0" encoding="UTF-8" standalone="no"?>
<!-- Created with Inkscape (http://www.inkscape.org/) -->

<svg
   xmlns:dc="http://purl.org/dc/elements/1.1/"
   xmlns:cc="http://creativecommons.org/ns#"
   xmlns:rdf="http://www.w3.org/1999/02/22-rdf-syntax-ns#"
   xmlns:svg="http://www.w3.org/2000/svg"
   xmlns="http://www.w3.org/2000/svg"
   xmlns:xlink="http://www.w3.org/1999/xlink"
   xmlns:sodipodi="http://sodipodi.sourceforge.net/DTD/sodipodi-0.dtd"
   xmlns:inkscape="http://www.inkscape.org/namespaces/inkscape"
   width="172.78798mm"
   height="177.64882mm"
   viewBox="0 0 172.78798 177.64882"
   version="1.1"
   id="svg8"
   sodipodi:docname="freezetime_active.svg"
   inkscape:version="0.92.4 (33fec40, 2019-01-16)">
  <defs
     id="defs2">
    <linearGradient
       inkscape:collect="always"
       id="linearGradient5836">
      <stop
         style="stop-color:#b40000;stop-opacity:1;"
         offset="0"
         id="stop5832" />
      <stop
         style="stop-color:#b40000;stop-opacity:0;"
         offset="1"
         id="stop5834" />
    </linearGradient>
    <clipPath
       clipPathUnits="userSpaceOnUse"
       id="clipPath4770">
      <rect
         style="fill:#75c4ff;fill-opacity:1;stroke:#fffffe;stroke-width:0.9122768;stroke-miterlimit:4;stroke-dasharray:none;stroke-opacity:1"
         id="rect4772"
         width="158.6167"
         height="324.12979"
         x="92.2668"
         y="132.42201" />
    </clipPath>
    <clipPath
       clipPathUnits="userSpaceOnUse"
       id="clipPath4784">
      <rect
         style="fill:#000000;fill-opacity:1;stroke:#000002;stroke-width:1.88976383;stroke-miterlimit:4;stroke-dasharray:none;stroke-opacity:1"
         id="rect4786"
         width="345.71429"
         height="625.71429"
         x="-460.89871"
         y="-172.64699" />
    </clipPath>
    <linearGradient
       inkscape:collect="always"
       xlink:href="#linearGradient5836"
       id="linearGradient5838"
       x1="99.334049"
       y1="294.48691"
       x2="250.8835"
       y2="294.48691"
       gradientUnits="userSpaceOnUse" />
    <linearGradient
       inkscape:collect="always"
       xlink:href="#linearGradient5836"
       id="linearGradient5840"
       x1="-460.89871"
       y1="140.28572"
       x2="-116.57143"
       y2="140.28572"
       gradientUnits="userSpaceOnUse" />
  </defs>
  <sodipodi:namedview
     id="base"
     pagecolor="#ffffff"
     bordercolor="#666666"
     borderopacity="1.0"
     inkscape:pageopacity="0.0"
     inkscape:pageshadow="2"
     inkscape:zoom="0.35"
     inkscape:cx="363.44465"
     inkscape:cy="271.3012"
     inkscape:document-units="mm"
     inkscape:current-layer="layer1"
     showgrid="false"
     inkscape:window-width="1867"
     inkscape:window-height="1145"
     inkscape:window-x="1973"
     inkscape:window-y="27"
     inkscape:window-maximized="1" />
  <metadata
     id="metadata5">
    <rdf:RDF>
      <cc:Work
         rdf:about="">
        <dc:format>image/svg+xml</dc:format>
        <dc:type
           rdf:resource="http://purl.org/dc/dcmitype/StillImage" />
        <dc:title />
      </cc:Work>
    </rdf:RDF>
  </metadata>
  <g
     inkscape:label="Layer 1"
     inkscape:groupmode="layer"
     id="layer1"
     transform="translate(127.15545,-12.728192)">
    <g
       id="g4728"
       transform="matrix(0.26458333,0,0,0.26458333,76.475397,66.386152)"
       clip-path="url(#clipPath4784)"
       style="fill:#009600;fill-opacity:1;stroke:#009600;stroke-opacity:1">
      <g
         id="g4670"
         transform="translate(-728.57143,-165.71428)"
         style="fill:#009600;fill-opacity:1;stroke:#009600;stroke-opacity:1">
        <g
           id="g4668"
           style="fill:#009600;fill-opacity:1;stroke:#009600;stroke-opacity:1">
          <path
             id="path4664"
             d="M 587.572,186.881 C 555.306,111.656 500.476,56.947 424.623,24.596 386.711,8.427 346.992,0.168 305.497,0.168 264.009,0.168 224.583,8.349 186.713,24.596 111.488,56.861 56.415,111.535 24.092,186.881 7.895,224.629 0,264.176 0,305.664 c 0,41.496 7.895,81.371 24.092,119.127 32.323,75.346 87.403,130.348 162.621,162.621 37.877,16.247 77.295,24.42 118.784,24.42 41.489,0 81.214,-8.259 119.12,-24.42 C 500.47,555.06 555.3,500.009 587.573,424.791 603.819,386.914 612,347.16 612,305.664 c 0,-41.488 -8.174,-80.907 -24.428,-118.783 z m -48.848,253.972 c -24.021,41.195 -56.929,73.876 -98.375,98.039 -41.195,24.021 -86.332,36.135 -134.845,36.135 -36.47,0 -71.27,-7.024 -104.4,-21.415 C 167.975,539.228 139.371,520.318 115.443,496.397 91.515,472.469 72.47,443.586 58.229,410.4 44.03,377.335 37.149,342.142 37.149,305.665 c 0,-48.52 11.921,-93.428 35.807,-134.509 23.971,-41.231 56.886,-73.947 98.039,-98.04 41.146,-24.092 85.99,-36.142 134.502,-36.142 48.52,0 93.649,12.121 134.845,36.142 41.446,24.164 74.283,56.879 98.375,98.039 24.092,41.153 36.135,85.99 36.135,134.509 0,48.521 -11.964,93.735 -36.128,135.189 z"
             inkscape:connector-curvature="0"
             style="fill:#009600;fill-opacity:1;stroke:#009600;stroke-opacity:1" />
          <path
             id="path4666"
             d="M 324.906,302.988 V 129.659 c 0,-10.372 -9.037,-18.738 -19.41,-18.738 -9.701,0 -18.403,8.366 -18.403,18.738 v 176.005 c 0,0.336 0.671,1.678 0.671,2.678 -0.671,6.024 1.007,11.043 5.019,15.062 L 392.836,423.45 c 6.695,6.695 19.073,6.695 25.763,0 7.694,-7.695 7.188,-18.86 0,-26.099 z"
             inkscape:connector-curvature="0"
             style="fill:#009600;fill-opacity:1;stroke:#009600;stroke-opacity:1" />
        </g>
      </g>
      <g
         id="g4672"
         style="fill:#009600;fill-opacity:1;stroke:#009600;stroke-opacity:1" />
      <g
         id="g4674"
         style="fill:#009600;fill-opacity:1;stroke:#009600;stroke-opacity:1" />
      <g
         id="g4676"
         style="fill:#009600;fill-opacity:1;stroke:#009600;stroke-opacity:1" />
      <g
         id="g4678"
         style="fill:#009600;fill-opacity:1;stroke:#009600;stroke-opacity:1" />
      <g
         id="g4680"
         style="fill:#009600;fill-opacity:1;stroke:#009600;stroke-opacity:1" />
      <g
         id="g4682"
         style="fill:#009600;fill-opacity:1;stroke:#009600;stroke-opacity:1" />
      <g
         id="g4684"
         style="fill:#009600;fill-opacity:1;stroke:#009600;stroke-opacity:1" />
      <g
         id="g4686"
         style="fill:#009600;fill-opacity:1;stroke:#009600;stroke-opacity:1" />
      <g
         id="g4688"
         style="fill:#009600;fill-opacity:1;stroke:#009600;stroke-opacity:1" />
      <g
         id="g4690"
         style="fill:#009600;fill-opacity:1;stroke:#009600;stroke-opacity:1" />
      <g
         id="g4692"
         style="fill:#009600;fill-opacity:1;stroke:#009600;stroke-opacity:1" />
      <g
         id="g4694"
         style="fill:#009600;fill-opacity:1;stroke:#009600;stroke-opacity:1" />
      <g
         id="g4696"
         style="fill:#009600;fill-opacity:1;stroke:#009600;stroke-opacity:1" />
      <g
         id="g4698"
         style="fill:#009600;fill-opacity:1;stroke:#009600;stroke-opacity:1" />
      <g
         id="g4700"
         style="fill:#009600;fill-opacity:1;stroke:#009600;stroke-opacity:1" />
    </g>
    <g
       id="g4662"
       transform="matrix(0.54807927,0,0,0.54807927,-181.59838,-59.849568)"
       clip-path="url(#clipPath4770)"
       style="fill:#009600;fill-opacity:1;stroke:#009600;stroke-opacity:1">
      <g
         id="g4778"
         style="fill:#009600;fill-opacity:1;stroke:#009600;stroke-opacity:1">
        <path
           id="path4604"
           d="m 379.22126,363.14608 -35.15841,-20.31552 29.68207,-17.67709 c 4.77186,-2.29898 6.24871,-8.70672 3.53495,-13.41767 -2.76258,-4.8244 -8.72531,-5.84183 -13.25165,-3.20387 l -39.57502,23.17994 -62.89585,-36.59807 62.89539,-36.22095 39.57501,23.14228 c 1.23598,0.90443 2.82629,1.43221 4.5947,1.43221 3.35406,0 6.35845,-1.58287 8.65696,-4.59842 2.65005,-4.78674 1.23691,-11.11869 -3.53495,-13.41766 l -29.68208,-17.67709 35.15842,-20.31506 c 4.5826,-2.63843 6.1585,-8.55606 3.53495,-13.41813 -2.5059,-4.67374 -8.70625,-6.29428 -13.42882,-3.54286 l -35.33559,20.50385 -0.52777,-35.35418 c -0.0828,-5.46518 -4.24037,-9.87527 -9.71671,-9.87527 -5.47541,0 -9.75762,4.74907 -9.71624,9.87527 l 0.35061,46.66119 -62.54105,36.22095 v -73.49745 l 39.39832,-22.46384 c 4.59934,-2.60076 6.60351,-8.66905 3.88603,-13.41766 -2.75933,-4.82441 -8.42353,-6.25708 -13.25166,-3.54286 l -30.03269,16.96099 v -40.10372 c 0,-5.46519 -4.41753,-9.87481 -9.89387,-9.87481 -5.47634,0 -9.7167,4.40962 -9.7167,9.87481 v 40.47991 l -31.09522,-17.33764 c -4.84347,-2.67609 -10.35748,-1.16855 -13.07496,3.54286 -2.75886,4.8244 -1.04393,10.74203 3.70887,13.41766 l 40.46131,22.80329 v 72.78135 l -63.95745,-36.89939 0.35433,-45.60611 c 0.5315,-5.12573 -4.0632,-9.87527 -9.53954,-9.87527 h -0.35433 c -5.12248,0 -9.65998,4.41009 -9.71671,9.87527 l -0.35433,34.29863 -34.44929,-19.78774 c -4.80952,-2.78909 -10.74575,-1.13089 -13.25212,3.50519 -2.623547,4.89974 -1.266668,10.66671 3.53542,13.45579 l 34.80362,20.12673 -30.38981,18.20487 c -4.76861,2.29944 -6.25755,8.70672 -3.355,13.41813 1.86931,3.05321 4.59098,4.59842 8.3031,4.59842 1.94092,0 3.55773,-0.49012 5.122,-1.43221 l 39.75265,-23.48173 63.78075,36.5604 -63.78075,36.93706 -39.75265,-23.51893 c -4.77186,-2.78909 -10.92292,-1.46987 -13.42556,3.20387 -2.62355,4.86207 -1.19878,10.70437 3.35453,13.41767 l 30.39027,18.01608 -34.80408,20.31551 c -4.790463,2.78909 -6.343573,8.66906 -3.53542,13.4558 1.96417,3.31687 4.59516,4.93787 8.30403,4.93787 0.88211,0 2.64958,-0.52778 4.94902,-1.43221 l 34.44929,-19.78774 0.35433,34.29862 c 0.0567,5.46518 4.59423,9.68648 9.71671,9.68648 h 0.35433 c 5.47634,0 9.58092,-4.56075 9.53954,-10.0636 l -0.35433,-45.56844 63.95745,-36.55993 v 72.40423 l -40.46131,22.80282 c -4.82813,2.71376 -6.51702,8.63139 -3.70887,13.41813 1.96371,3.35453 4.5947,4.97507 8.3031,4.97507 1.76794,0 3.39591,-0.30132 4.77186,-1.09322 l 31.09522,-17.6399 v 41.15882 c 0,5.46518 4.24036,9.72414 9.7167,9.72414 5.47634,0 9.89387,-4.25896 9.89387,-9.72414 v -40.48038 l 30.03269,16.96146 c 1.37501,0.79143 3.00345,1.09322 4.5947,1.09322 3.8851,0 6.74998,-1.58287 8.65696,-4.97507 2.68353,-4.74908 0.95,-10.70484 -3.88603,-13.41813 l -39.39832,-22.08671 v -73.49746 l 62.54105,36.22095 -0.35061,46.28454 c -0.0456,5.50285 4.24037,10.0636 9.71671,10.0636 5.47634,0 9.63347,-4.2213 9.71624,-9.68648 l 0.52777,-35.54251 35.33559,20.69217 c 1.36432,0.79144 3.18062,1.05556 5.12573,1.05556 3.70933,0 6.43006,-1.5452 8.30263,-4.59841 2.89976,-4.71142 1.04858,-10.77971 -3.53403,-13.41813 z"
           inkscape:connector-curvature="0"
           style="fill:#009600;fill-opacity:1;stroke:#009600;stroke-width:0.46500307;stroke-opacity:1" />
      </g>
      <g
         id="g4608"
         style="fill:#009600;fill-opacity:1;stroke:#009600;stroke-opacity:1" />
      <g
         id="g4610"
         style="fill:#009600;fill-opacity:1;stroke:#009600;stroke-opacity:1" />
      <g
         id="g4612"
         style="fill:#009600;fill-opacity:1;stroke:#009600;stroke-opacity:1" />
      <g
         id="g4614"
         style="fill:#009600;fill-opacity:1;stroke:#009600;stroke-opacity:1" />
      <g
         id="g4616"
         style="fill:#009600;fill-opacity:1;stroke:#009600;stroke-opacity:1" />
      <g
         id="g4618"
         style="fill:#009600;fill-opacity:1;stroke:#009600;stroke-opacity:1" />
      <g
         id="g4620"
         style="fill:#009600;fill-opacity:1;stroke:#009600;stroke-opacity:1" />
      <g
         id="g4622"
         style="fill:#009600;fill-opacity:1;stroke:#009600;stroke-opacity:1" />
      <g
         id="g4624"
         style="fill:#009600;fill-opacity:1;stroke:#009600;stroke-opacity:1" />
      <g
         id="g4626"
         style="fill:#009600;fill-opacity:1;stroke:#009600;stroke-opacity:1" />
      <g
         id="g4628"
         style="fill:#009600;fill-opacity:1;stroke:#009600;stroke-opacity:1" />
      <g
         id="g4630"
         style="fill:#009600;fill-opacity:1;stroke:#009600;stroke-opacity:1" />
      <g
         id="g4632"
         style="fill:#009600;fill-opacity:1;stroke:#009600;stroke-opacity:1" />
      <g
         id="g4634"
         style="fill:#009600;fill-opacity:1;stroke:#009600;stroke-opacity:1" />
      <g
         id="g4636"
         style="fill:#009600;fill-opacity:1;stroke:#009600;stroke-opacity:1" />
    </g>
  </g>
</svg>
