<?xml version="1.0" encoding="UTF-8" standalone="no"?>
<!-- Generator: Adobe Illustrator 19.0.0, SVG Export Plug-In . SVG Version: 6.00 Build 0)  -->

<svg
   xmlns:dc="http://purl.org/dc/elements/1.1/"
   xmlns:cc="http://creativecommons.org/ns#"
   xmlns:rdf="http://www.w3.org/1999/02/22-rdf-syntax-ns#"
   xmlns:svg="http://www.w3.org/2000/svg"
   xmlns="http://www.w3.org/2000/svg"
   xmlns:sodipodi="http://sodipodi.sourceforge.net/DTD/sodipodi-0.dtd"
   xmlns:inkscape="http://www.inkscape.org/namespaces/inkscape"
   version="1.1"
   id="Capa_1"
   x="0px"
   y="0px"
   viewBox="0 0 60 60"
   style="enable-background:new 0 0 60 60;"
   xml:space="preserve"
   sodipodi:docname="map.svg"
   inkscape:version="0.92.4 (33fec40, 2019-01-16)"><metadata
   id="metadata910"><rdf:RDF><cc:Work
       rdf:about=""><dc:format>image/svg+xml</dc:format><dc:type
         rdf:resource="http://purl.org/dc/dcmitype/StillImage" /></cc:Work></rdf:RDF></metadata><defs
   id="defs908" /><sodipodi:namedview
   pagecolor="#ffffff"
   bordercolor="#666666"
   borderopacity="1"
   objecttolerance="10"
   gridtolerance="10"
   guidetolerance="10"
   inkscape:pageopacity="0"
   inkscape:pageshadow="2"
   inkscape:window-width="1867"
   inkscape:window-height="1025"
   id="namedview906"
   showgrid="false"
   inkscape:zoom="13.45"
   inkscape:cx="30"
   inkscape:cy="30"
   inkscape:window-x="1973"
   inkscape:window-y="27"
   inkscape:window-maximized="1"
   inkscape:current-layer="Capa_1" />
<path
   d="M59.423,11.591l-15-7c-0.015-0.007-0.032-0.009-0.047-0.015c-0.042-0.017-0.085-0.03-0.128-0.041  c-0.036-0.009-0.071-0.018-0.107-0.023c-0.045-0.007-0.09-0.008-0.136-0.008c-0.037,0-0.074,0-0.111,0.004  c-0.043,0.004-0.084,0.014-0.126,0.024c-0.04,0.01-0.08,0.02-0.119,0.034c-0.014,0.005-0.029,0.006-0.043,0.012L30,10.409  L16.394,4.578c-0.009-0.004-0.018-0.004-0.027-0.008c-0.04-0.016-0.081-0.025-0.122-0.035c-0.038-0.01-0.076-0.021-0.115-0.027  c-0.042-0.005-0.083-0.004-0.125-0.004c-0.039,0-0.077-0.003-0.115,0.002c-0.043,0.005-0.085,0.017-0.127,0.027  c-0.037,0.009-0.074,0.016-0.11,0.029c-0.008,0.003-0.017,0.003-0.025,0.007l-15,6C0.249,10.721,0,11.088,0,11.497v43  c0,0.332,0.165,0.642,0.439,0.828C0.607,55.438,0.803,55.497,1,55.497c0.125,0,0.251-0.023,0.372-0.071l14.616-5.846l13.619,5.836  c0.014,0.006,0.029,0.003,0.043,0.009c0.114,0.043,0.231,0.072,0.351,0.072s0.238-0.029,0.351-0.072  c0.014-0.005,0.029-0.003,0.043-0.009l13.619-5.836l14.616,5.846c0.12,0.048,0.246,0.071,0.372,0.071  c0.197,0,0.393-0.059,0.561-0.172C59.835,55.139,60,54.829,60,54.497v-42C60,12.108,59.775,11.755,59.423,11.591z M2,12.174l13-5.2  V47.82l-13,5.2V12.174z M17,7.014l12,5.143V52.98l-12-5.143V7.014z M31,12.156l12-5.143v40.824L31,52.98V12.156z M58,53.02l-13-5.2  V7.067l13,6.066V53.02z"
   id="path873"
   style="stroke:none;stroke-opacity:1;fill:#ffffff;fill-opacity:1" />
<g
   id="g875">
</g>
<g
   id="g877">
</g>
<g
   id="g879">
</g>
<g
   id="g881">
</g>
<g
   id="g883">
</g>
<g
   id="g885">
</g>
<g
   id="g887">
</g>
<g
   id="g889">
</g>
<g
   id="g891">
</g>
<g
   id="g893">
</g>
<g
   id="g895">
</g>
<g
   id="g897">
</g>
<g
   id="g899">
</g>
<g
   id="g901">
</g>
<g
   id="g903">
</g>
</svg>