<?xml version="1.0" encoding="UTF-8" standalone="no"?>
<svg
   xmlns:dc="http://purl.org/dc/elements/1.1/"
   xmlns:cc="http://creativecommons.org/ns#"
   xmlns:rdf="http://www.w3.org/1999/02/22-rdf-syntax-ns#"
   xmlns:svg="http://www.w3.org/2000/svg"
   xmlns="http://www.w3.org/2000/svg"
   xmlns:sodipodi="http://sodipodi.sourceforge.net/DTD/sodipodi-0.dtd"
   xmlns:inkscape="http://www.inkscape.org/namespaces/inkscape"
   height="512pt"
   viewBox="0 0 512 512"
   width="512pt"
   version="1.1"
   id="svg20"
   sodipodi:docname="space_active.svg"
   inkscape:version="0.92.4 (33fec40, 2019-01-16)">
  <metadata
     id="metadata26">
    <rdf:RDF>
      <cc:Work
         rdf:about="">
        <dc:format>image/svg+xml</dc:format>
        <dc:type
           rdf:resource="http://purl.org/dc/dcmitype/StillImage" />
        <dc:title></dc:title>
      </cc:Work>
    </rdf:RDF>
  </metadata>
  <defs
     id="defs24" />
  <sodipodi:namedview
     pagecolor="#ffffff"
     bordercolor="#666666"
     borderopacity="1"
     objecttolerance="10"
     gridtolerance="10"
     guidetolerance="10"
     inkscape:pageopacity="0"
     inkscape:pageshadow="2"
     inkscape:window-width="1867"
     inkscape:window-height="1145"
     id="namedview22"
     showgrid="false"
     inkscape:zoom="0.34570313"
     inkscape:cx="341.33333"
     inkscape:cy="341.33333"
     inkscape:window-x="1973"
     inkscape:window-y="27"
     inkscape:window-maximized="1"
     inkscape:current-layer="svg20" />
  <path
     d="m256 75c-24.8125 0-45 20.1875-45 45s20.1875 45 45 45 45-20.1875 45-45-20.1875-45-45-45zm0 0"
     id="path2"
     style="fill:#960000;fill-opacity:1" />
  <path
     d="m256 0c-66.167969 0-120 53.832031-120 120 0 22.691406 6.371094 44.796875 18.429688 63.925781l101.570312 162.074219 101.570312-162.074219c12.058594-19.128906 18.429688-41.234375 18.429688-63.925781 0-66.167969-53.832031-120-120-120zm0 195c-41.351562 0-75-33.648438-75-75s33.648438-75 75-75 75 33.648438 75 75-33.648438 75-75 75zm0 0"
     id="path4"
     style="fill:#960000;fill-opacity:1" />
  <path
     d="m182.996094 512h145.957031l-11.535156-91h-123.175781zm0 0"
     id="path6"
     style="fill:#960000;fill-opacity:1" />
  <path
     d="m197.992188 391h50.914062l-42.488281-67.386719zm0 0"
     id="path8"
     style="fill:#960000;fill-opacity:1" />
  <path
     d="m343.828125 391h118.175781l-37.5-90h-92.21875zm0 0"
     id="path10"
     style="fill:#960000;fill-opacity:1" />
  <path
     d="m49.996094 391h117.765625l11.25-90h-91.515625zm0 0"
     id="path12"
     style="fill:#960000;fill-opacity:1" />
  <path
     d="m263.09375 391h50.476562l-8.527343-66.523438zm0 0"
     id="path14"
     style="fill:#960000;fill-opacity:1" />
  <path
     d="m164.011719 421h-126.515625l-37.496094 91h152.765625zm0 0"
     id="path16"
     style="fill:#960000;fill-opacity:1" />
  <path
     d="m474.503906 421h-126.832031l11.539063 91h152.789062zm0 0"
     id="path18"
     style="fill:#960000;fill-opacity:1" />
</svg>
