<?xml version="1.0" encoding="UTF-8" standalone="no"?>
<!-- Generator: Adobe Illustrator 16.0.0, SVG Export Plug-In . SVG Version: 6.00 Build 0)  -->

<svg
   xmlns:dc="http://purl.org/dc/elements/1.1/"
   xmlns:cc="http://creativecommons.org/ns#"
   xmlns:rdf="http://www.w3.org/1999/02/22-rdf-syntax-ns#"
   xmlns:svg="http://www.w3.org/2000/svg"
   xmlns="http://www.w3.org/2000/svg"
   xmlns:sodipodi="http://sodipodi.sourceforge.net/DTD/sodipodi-0.dtd"
   xmlns:inkscape="http://www.inkscape.org/namespaces/inkscape"
   version="1.1"
   id="Capa_1"
   x="0px"
   y="0px"
   width="47.000858"
   height="43.451"
   viewBox="0 0 47.000859 43.451001"
   xml:space="preserve"
   sodipodi:docname="time_active.svg"
   inkscape:version="0.92.4 (33fec40, 2019-01-16)"><metadata
   id="metadata46"><rdf:RDF><cc:Work
       rdf:about=""><dc:format>image/svg+xml</dc:format><dc:type
         rdf:resource="http://purl.org/dc/dcmitype/StillImage" /><dc:title></dc:title></cc:Work></rdf:RDF></metadata><defs
   id="defs44" /><sodipodi:namedview
   pagecolor="#ffffff"
   bordercolor="#666666"
   borderopacity="1"
   objecttolerance="10"
   gridtolerance="10"
   guidetolerance="10"
   inkscape:pageopacity="0"
   inkscape:pageshadow="2"
   inkscape:window-width="1867"
   inkscape:window-height="1145"
   id="namedview42"
   showgrid="false"
   inkscape:zoom="5.0211698"
   inkscape:cx="-12.546877"
   inkscape:cy="21.7255"
   inkscape:window-x="1973"
   inkscape:window-y="27"
   inkscape:window-maximized="1"
   inkscape:current-layer="Capa_1" />
<g
   id="g9"
   style="fill:#960000;fill-opacity:1"
   transform="translate(0,-1.775)">
	<g
   id="Layer_1_65_"
   style="fill:#960000;fill-opacity:1">
		<g
   id="g6"
   style="fill:#960000;fill-opacity:1">
			<path
   d="M 46.907,20.12 C 46.744,19.773 46.396,19.551 46.011,19.551 H 43.084 C 41.223,9.452 32.355,1.775 21.726,1.775 9.747,1.775 0,11.522 0,23.501 0,35.48 9.746,45.226 21.726,45.226 c 7.731,0 14.941,-4.161 18.816,-10.857 0.546,-0.945 0.224,-2.152 -0.722,-2.699 -0.944,-0.547 -2.152,-0.225 -2.697,0.72 -3.172,5.481 -9.072,8.887 -15.397,8.887 -9.801,0 -17.776,-7.974 -17.776,-17.774 0,-9.802 7.975,-17.776 17.776,-17.776 8.442,0 15.515,5.921 17.317,13.825 h -2.904 c -0.385,0 -0.732,0.222 -0.896,0.569 -0.163,0.347 -0.11,0.756 0.136,1.051 l 4.938,5.925 c 0.188,0.225 0.465,0.355 0.759,0.355 0.293,0 0.571,-0.131 0.758,-0.355 l 4.938,-5.925 c 0.246,-0.296 0.298,-0.705 0.135,-1.052 z"
   id="path2"
   style="fill:#960000;fill-opacity:1"
   inkscape:connector-curvature="0" />
			<path
   d="m 21.726,6.713 c -1.091,0 -1.975,0.884 -1.975,1.975 v 11.984 c -0.893,0.626 -1.481,1.658 -1.481,2.83 0,1.906 1.551,3.457 3.457,3.457 0.522,0 1.014,-0.125 1.458,-0.334 l 6.87,3.965 c 0.312,0.181 0.65,0.266 0.986,0.266 0.682,0 1.346,-0.354 1.712,-0.988 0.545,-0.943 0.222,-2.152 -0.724,-2.697 L 25.152,23.2 C 25.06,22.156 24.517,21.244 23.703,20.674 V 8.688 C 23.701,7.598 22.816,6.713 21.726,6.713 Z m 0,18.269 c -0.817,0 -1.481,-0.665 -1.481,-1.48 0,-0.816 0.665,-1.481 1.481,-1.481 0.816,0 1.481,0.665 1.481,1.481 0,0.815 -0.665,1.48 -1.481,1.48 z"
   id="path4"
   style="fill:#960000;fill-opacity:1"
   inkscape:connector-curvature="0" />
		</g>
	</g>
</g>
<g
   id="g11"
   style="fill:#960000;fill-opacity:1"
   transform="translate(0,-1.775)">
</g>
<g
   id="g13"
   style="fill:#960000;fill-opacity:1"
   transform="translate(0,-1.775)">
</g>
<g
   id="g15"
   style="fill:#960000;fill-opacity:1"
   transform="translate(0,-1.775)">
</g>
<g
   id="g17"
   style="fill:#960000;fill-opacity:1"
   transform="translate(0,-1.775)">
</g>
<g
   id="g19"
   style="fill:#960000;fill-opacity:1"
   transform="translate(0,-1.775)">
</g>
<g
   id="g21"
   style="fill:#960000;fill-opacity:1"
   transform="translate(0,-1.775)">
</g>
<g
   id="g23"
   style="fill:#960000;fill-opacity:1"
   transform="translate(0,-1.775)">
</g>
<g
   id="g25"
   style="fill:#960000;fill-opacity:1"
   transform="translate(0,-1.775)">
</g>
<g
   id="g27"
   style="fill:#960000;fill-opacity:1"
   transform="translate(0,-1.775)">
</g>
<g
   id="g29"
   style="fill:#960000;fill-opacity:1"
   transform="translate(0,-1.775)">
</g>
<g
   id="g31"
   style="fill:#960000;fill-opacity:1"
   transform="translate(0,-1.775)">
</g>
<g
   id="g33"
   style="fill:#960000;fill-opacity:1"
   transform="translate(0,-1.775)">
</g>
<g
   id="g35"
   style="fill:#960000;fill-opacity:1"
   transform="translate(0,-1.775)">
</g>
<g
   id="g37"
   style="fill:#960000;fill-opacity:1"
   transform="translate(0,-1.775)">
</g>
<g
   id="g39"
   style="fill:#960000;fill-opacity:1"
   transform="translate(0,-1.775)">
</g>
</svg>