<?xml version="1.0" encoding="UTF-8" standalone="no"?>
<!-- Created with Inkscape (http://www.inkscape.org/) -->

<svg
   xmlns:dc="http://purl.org/dc/elements/1.1/"
   xmlns:cc="http://creativecommons.org/ns#"
   xmlns:rdf="http://www.w3.org/1999/02/22-rdf-syntax-ns#"
   xmlns:svg="http://www.w3.org/2000/svg"
   xmlns="http://www.w3.org/2000/svg"
   xmlns:sodipodi="http://sodipodi.sourceforge.net/DTD/sodipodi-0.dtd"
   xmlns:inkscape="http://www.inkscape.org/namespaces/inkscape"
   width="178.23587mm"
   height="177.64882mm"
   viewBox="0 0 178.23587 177.64882"
   version="1.1"
   id="svg8"
   inkscape:version="0.92.4 (33fec40, 2019-01-16)"
   sodipodi:docname="freezespace_active.svg">
  <defs
     id="defs2">
    <clipPath
       clipPathUnits="userSpaceOnUse"
       id="clipPath4770">
      <rect
         style="fill:#75c4ff;fill-opacity:1;stroke:#fffffe;stroke-width:0.9122768;stroke-miterlimit:4;stroke-dasharray:none;stroke-opacity:1"
         id="rect4772"
         width="158.6167"
         height="324.12979"
         x="92.2668"
         y="132.42201" />
    </clipPath>
    <clipPath
       clipPathUnits="userSpaceOnUse"
       id="clipPath4784">
      <rect
         style="fill:#000000;fill-opacity:1;stroke:#000002;stroke-width:1.88976383;stroke-miterlimit:4;stroke-dasharray:none;stroke-opacity:1"
         id="rect4786"
         width="345.71429"
         height="625.71429"
         x="-460.89871"
         y="-172.64699" />
    </clipPath>
    <clipPath
       clipPathUnits="userSpaceOnUse"
       id="clipPath4876">
      <rect
         style="fill:#000000;fill-opacity:1;stroke:#000002;stroke-width:1.88976383;stroke-miterlimit:4;stroke-dasharray:none;stroke-opacity:1"
         id="rect4878"
         width="374.28568"
         height="614.28571"
         x="145.40504"
         y="-75.239487" />
    </clipPath>
  </defs>
  <sodipodi:namedview
     id="base"
     pagecolor="#ffffff"
     bordercolor="#666666"
     borderopacity="1.0"
     inkscape:pageopacity="0.0"
     inkscape:pageshadow="2"
     inkscape:zoom="0.35"
     inkscape:cx="-852.26964"
     inkscape:cy="271.3012"
     inkscape:document-units="mm"
     inkscape:current-layer="layer1"
     showgrid="false"
     inkscape:window-width="1867"
     inkscape:window-height="1145"
     inkscape:window-x="1973"
     inkscape:window-y="27"
     inkscape:window-maximized="1" />
  <metadata
     id="metadata5">
    <rdf:RDF>
      <cc:Work
         rdf:about="">
        <dc:format>image/svg+xml</dc:format>
        <dc:type
           rdf:resource="http://purl.org/dc/dcmitype/StillImage" />
        <dc:title />
      </cc:Work>
    </rdf:RDF>
  </metadata>
  <g
     inkscape:label="Layer 1"
     inkscape:groupmode="layer"
     id="layer1"
     transform="translate(127.15545,-12.728192)">
    <g
       id="g4662"
       transform="matrix(0.54807927,0,0,0.54807927,-181.59838,-59.849568)"
       clip-path="url(#clipPath4770)"
       style="fill:#009600;fill-opacity:1;stroke:#009600;stroke-opacity:1">
      <g
         id="g4778"
         style="fill:#009600;fill-opacity:1;stroke:#009600;stroke-opacity:1">
        <path
           id="path4604"
           d="m 379.22126,363.14608 -35.15841,-20.31552 29.68207,-17.67709 c 4.77186,-2.29898 6.24871,-8.70672 3.53495,-13.41767 -2.76258,-4.8244 -8.72531,-5.84183 -13.25165,-3.20387 l -39.57502,23.17994 -62.89585,-36.59807 62.89539,-36.22095 39.57501,23.14228 c 1.23598,0.90443 2.82629,1.43221 4.5947,1.43221 3.35406,0 6.35845,-1.58287 8.65696,-4.59842 2.65005,-4.78674 1.23691,-11.11869 -3.53495,-13.41766 l -29.68208,-17.67709 35.15842,-20.31506 c 4.5826,-2.63843 6.1585,-8.55606 3.53495,-13.41813 -2.5059,-4.67374 -8.70625,-6.29428 -13.42882,-3.54286 l -35.33559,20.50385 -0.52777,-35.35418 c -0.0828,-5.46518 -4.24037,-9.87527 -9.71671,-9.87527 -5.47541,0 -9.75762,4.74907 -9.71624,9.87527 l 0.35061,46.66119 -62.54105,36.22095 v -73.49745 l 39.39832,-22.46384 c 4.59934,-2.60076 6.60351,-8.66905 3.88603,-13.41766 -2.75933,-4.82441 -8.42353,-6.25708 -13.25166,-3.54286 l -30.03269,16.96099 v -40.10372 c 0,-5.46519 -4.41753,-9.87481 -9.89387,-9.87481 -5.47634,0 -9.7167,4.40962 -9.7167,9.87481 v 40.47991 l -31.09522,-17.33764 c -4.84347,-2.67609 -10.35748,-1.16855 -13.07496,3.54286 -2.75886,4.8244 -1.04393,10.74203 3.70887,13.41766 l 40.46131,22.80329 v 72.78135 l -63.95745,-36.89939 0.35433,-45.60611 c 0.5315,-5.12573 -4.0632,-9.87527 -9.53954,-9.87527 h -0.35433 c -5.12248,0 -9.65998,4.41009 -9.71671,9.87527 l -0.35433,34.29863 -34.44929,-19.78774 c -4.80952,-2.78909 -10.74575,-1.13089 -13.25212,3.50519 -2.623547,4.89974 -1.266668,10.66671 3.53542,13.45579 l 34.80362,20.12673 -30.38981,18.20487 c -4.76861,2.29944 -6.25755,8.70672 -3.355,13.41813 1.86931,3.05321 4.59098,4.59842 8.3031,4.59842 1.94092,0 3.55773,-0.49012 5.122,-1.43221 l 39.75265,-23.48173 63.78075,36.5604 -63.78075,36.93706 -39.75265,-23.51893 c -4.77186,-2.78909 -10.92292,-1.46987 -13.42556,3.20387 -2.62355,4.86207 -1.19878,10.70437 3.35453,13.41767 l 30.39027,18.01608 -34.80408,20.31551 c -4.790463,2.78909 -6.343573,8.66906 -3.53542,13.4558 1.96417,3.31687 4.59516,4.93787 8.30403,4.93787 0.88211,0 2.64958,-0.52778 4.94902,-1.43221 l 34.44929,-19.78774 0.35433,34.29862 c 0.0567,5.46518 4.59423,9.68648 9.71671,9.68648 h 0.35433 c 5.47634,0 9.58092,-4.56075 9.53954,-10.0636 l -0.35433,-45.56844 63.95745,-36.55993 v 72.40423 l -40.46131,22.80282 c -4.82813,2.71376 -6.51702,8.63139 -3.70887,13.41813 1.96371,3.35453 4.5947,4.97507 8.3031,4.97507 1.76794,0 3.39591,-0.30132 4.77186,-1.09322 l 31.09522,-17.6399 v 41.15882 c 0,5.46518 4.24036,9.72414 9.7167,9.72414 5.47634,0 9.89387,-4.25896 9.89387,-9.72414 v -40.48038 l 30.03269,16.96146 c 1.37501,0.79143 3.00345,1.09322 4.5947,1.09322 3.8851,0 6.74998,-1.58287 8.65696,-4.97507 2.68353,-4.74908 0.95,-10.70484 -3.88603,-13.41813 l -39.39832,-22.08671 v -73.49746 l 62.54105,36.22095 -0.35061,46.28454 c -0.0456,5.50285 4.24037,10.0636 9.71671,10.0636 5.47634,0 9.63347,-4.2213 9.71624,-9.68648 l 0.52777,-35.54251 35.33559,20.69217 c 1.36432,0.79144 3.18062,1.05556 5.12573,1.05556 3.70933,0 6.43006,-1.5452 8.30263,-4.59841 2.89976,-4.71142 1.04858,-10.77971 -3.53403,-13.41813 z"
           inkscape:connector-curvature="0"
           style="fill:#009600;fill-opacity:1;stroke:#009600;stroke-width:0.46500307;stroke-opacity:1" />
      </g>
      <g
         id="g4608"
         style="fill:#009600;fill-opacity:1;stroke:#009600;stroke-opacity:1" />
      <g
         id="g4610"
         style="fill:#009600;fill-opacity:1;stroke:#009600;stroke-opacity:1" />
      <g
         id="g4612"
         style="fill:#009600;fill-opacity:1;stroke:#009600;stroke-opacity:1" />
      <g
         id="g4614"
         style="fill:#009600;fill-opacity:1;stroke:#009600;stroke-opacity:1" />
      <g
         id="g4616"
         style="fill:#009600;fill-opacity:1;stroke:#009600;stroke-opacity:1" />
      <g
         id="g4618"
         style="fill:#009600;fill-opacity:1;stroke:#009600;stroke-opacity:1" />
      <g
         id="g4620"
         style="fill:#009600;fill-opacity:1;stroke:#009600;stroke-opacity:1" />
      <g
         id="g4622"
         style="fill:#009600;fill-opacity:1;stroke:#009600;stroke-opacity:1" />
      <g
         id="g4624"
         style="fill:#009600;fill-opacity:1;stroke:#009600;stroke-opacity:1" />
      <g
         id="g4626"
         style="fill:#009600;fill-opacity:1;stroke:#009600;stroke-opacity:1" />
      <g
         id="g4628"
         style="fill:#009600;fill-opacity:1;stroke:#009600;stroke-opacity:1" />
      <g
         id="g4630"
         style="fill:#009600;fill-opacity:1;stroke:#009600;stroke-opacity:1" />
      <g
         id="g4632"
         style="fill:#009600;fill-opacity:1;stroke:#009600;stroke-opacity:1" />
      <g
         id="g4634"
         style="fill:#009600;fill-opacity:1;stroke:#009600;stroke-opacity:1" />
      <g
         id="g4636"
         style="fill:#009600;fill-opacity:1;stroke:#009600;stroke-opacity:1" />
    </g>
    <g
       id="g4868"
       transform="matrix(0.29558913,0,0,0.29558913,-93.955359,24.161224)"
       clip-path="url(#clipPath4876)"
       style="fill:#009600;fill-opacity:1;stroke:#009600;stroke-opacity:1">
      <g
         id="g4811"
         style="fill:#009600;fill-opacity:1;stroke:#009600;stroke-opacity:1">
        <g
           id="g4809"
           style="fill:#009600;fill-opacity:1;stroke:#009600;stroke-opacity:1">
          <path
             id="path4807"
             d="m 488.939,482.26 -54.875,-128 c -3.354,-7.844 -11.063,-12.927 -19.604,-12.927 h -36.337 l 13.086,-13.042 C 427.833,291.938 448,243.542 448,192 448,86.135 361.875,0 256,0 150.125,0 64,86.135 64,192 c 0,51.542 20.167,99.938 56.792,136.271 l 13.104,13.063 H 97.541 c -8.542,0 -16.25,5.083 -19.604,12.927 l -54.875,128 c -2.833,6.594 -2.146,14.167 1.792,20.146 3.958,5.99 10.646,9.594 17.813,9.594 h 426.669 c 7.167,0 13.854,-3.604 17.813,-9.594 3.935,-5.98 4.623,-13.553 1.79,-20.147 z M 256,106.667 c 47.063,0 85.333,38.281 85.333,85.333 0,47.052 -38.27,85.333 -85.333,85.333 -47.063,0 -85.333,-38.281 -85.333,-85.333 0,-47.052 38.27,-85.333 85.333,-85.333 z M 75.02,469.333 111.603,384 h 65.096 l 71.78,71.552 c 2.063,2.073 4.792,3.115 7.521,3.115 2.729,0 5.458,-1.042 7.521,-3.115 L 335.313,384 h 65.084 l 36.583,85.333 H 75.02 Z"
             inkscape:connector-curvature="0"
             style="fill:#009600;fill-opacity:1;stroke:#009600;stroke-opacity:1" />
        </g>
      </g>
      <g
         id="g4813"
         style="fill:#009600;fill-opacity:1;stroke:#009600;stroke-opacity:1" />
      <g
         id="g4815"
         style="fill:#009600;fill-opacity:1;stroke:#009600;stroke-opacity:1" />
      <g
         id="g4817"
         style="fill:#009600;fill-opacity:1;stroke:#009600;stroke-opacity:1" />
      <g
         id="g4819"
         style="fill:#009600;fill-opacity:1;stroke:#009600;stroke-opacity:1" />
      <g
         id="g4821"
         style="fill:#009600;fill-opacity:1;stroke:#009600;stroke-opacity:1" />
      <g
         id="g4823"
         style="fill:#009600;fill-opacity:1;stroke:#009600;stroke-opacity:1" />
      <g
         id="g4825"
         style="fill:#009600;fill-opacity:1;stroke:#009600;stroke-opacity:1" />
      <g
         id="g4827"
         style="fill:#009600;fill-opacity:1;stroke:#009600;stroke-opacity:1" />
      <g
         id="g4829"
         style="fill:#009600;fill-opacity:1;stroke:#009600;stroke-opacity:1" />
      <g
         id="g4831"
         style="fill:#009600;fill-opacity:1;stroke:#009600;stroke-opacity:1" />
      <g
         id="g4833"
         style="fill:#009600;fill-opacity:1;stroke:#009600;stroke-opacity:1" />
      <g
         id="g4835"
         style="fill:#009600;fill-opacity:1;stroke:#009600;stroke-opacity:1" />
      <g
         id="g4837"
         style="fill:#009600;fill-opacity:1;stroke:#009600;stroke-opacity:1" />
      <g
         id="g4839"
         style="fill:#009600;fill-opacity:1;stroke:#009600;stroke-opacity:1" />
      <g
         id="g4841"
         style="fill:#009600;fill-opacity:1;stroke:#009600;stroke-opacity:1" />
    </g>
  </g>
</svg>
