<svg version="1.1" viewBox="0.0 0.0 205.33595800524935 208.7795275590551" fill="none" stroke="none" stroke-linecap="square" stroke-miterlimit="10" xmlns:xlink="http://www.w3.org/1999/xlink" xmlns="http://www.w3.org/2000/svg"><clipPath id="p.0"><path d="m0 0l205.33595 0l0 208.77953l-205.33595 0l0 -208.77953z" clip-rule="nonzero"/></clipPath><g clip-path="url(#p.0)"><path fill="#000000" fill-opacity="0.0" d="m0 0l205.33595 0l0 208.77953l-205.33595 0z" fill-rule="evenodd"/><path fill="#000000" fill-opacity="0.0" d="m17.606298 81.761154l0 0c0 -39.39921 31.939371 -71.338585 71.338585 -71.338585l0 0c18.920166 0 37.065414 7.5160074 50.443985 20.894588c13.378586 13.37858 20.894592 31.523829 20.894592 50.443993l0 0c0 39.399216 -31.939377 71.33858 -71.33858 71.33858l0 0c-39.399216 0 -71.338585 -31.939362 -71.338585 -71.33858z" fill-rule="evenodd"/><path stroke="#000000" stroke-width="24.0" stroke-linejoin="round" stroke-linecap="butt" d="m17.606298 81.761154l0 0c0 -39.39921 31.939371 -71.338585 71.338585 -71.338585l0 0c18.920166 0 37.065414 7.5160074 50.443985 20.894588c13.378586 13.37858 20.894592 31.523829 20.894592 50.443993l0 0c0 39.399216 -31.939377 71.33858 -71.33858 71.33858l0 0c-39.399216 0 -71.338585 -31.939362 -71.338585 -71.33858z" fill-rule="evenodd"/><path fill="#000000" fill-opacity="0.0" d="m139.09973 135.38846l54.897644 59.653534" fill-rule="evenodd"/><path stroke="#000000" stroke-width="24.0" stroke-linejoin="round" stroke-linecap="butt" d="m139.09973 135.38846l54.897644 59.653534" fill-rule="evenodd"/><path fill="#000000" d="m62.789387 76.782394l21.176731 0l0 -21.176735l9.957527 0l0 21.176735l21.176735 0l0 9.95752l-21.176735 0l0 21.176735l-9.957527 0l0 -21.176735l-21.176731 0z" fill-rule="evenodd"/><path stroke="#000000" stroke-width="2.0" stroke-linejoin="round" stroke-linecap="butt" d="m62.789387 76.782394l21.176731 0l0 -21.176735l9.957527 0l0 21.176735l21.176735 0l0 9.95752l-21.176735 0l0 21.176735l-9.957527 0l0 -21.176735l-21.176731 0z" fill-rule="evenodd"/></g></svg>